<svg xmlns="http://www.w3.org/2000/svg" viewBox="0 0 200 300" width="200" height="300">
  <!-- Senegal Flag WiFi Arcs -->
  <path d="M 40 100 Q 100 30, 160 100" stroke="#00843D" stroke-width="20" fill="none" stroke-linecap="round"/>
  <path d="M 55 105 Q 100 50, 145 105" stroke="#FDEF42" stroke-width="18" fill="none" stroke-linecap="round"/>
  <path d="M 70 108 Q 100 70, 130 108" stroke="#CE1126" stroke-width="16" fill="none" stroke-linecap="round"/>
  
  <!-- Star - Centered and visible -->
  <path d="M 100 110 L 103 120 L 113 120 L 105 126 L 108 136 L 100 130 L 92 136 L 95 126 L 87 120 L 97 120 Z" fill="#000000" stroke="#FDEF42" stroke-width="1.5"/>
  
  <!-- Pen Nib - Moved down, starts at y=145 -->
  <path d="M 100 145 L 92 165 L 95 170 L 100 180 L 105 170 L 108 165 Z" fill="#1a1a1a"/>
  <path d="M 100 145 L 97 160 L 100 180 L 103 160 Z" fill="#333333"/>
  <circle cx="100" cy="167" r="2" fill="#666666"/>
  
  <!-- Pen Grip Section -->
  <path d="M 92 165 L 88 183 L 88 193 L 112 193 L 112 183 L 108 165 Z" fill="#2d2d2d"/>
  <line x1="90" y1="187" x2="110" y2="187" stroke="#444444" stroke-width="1"/>
  <line x1="90" y1="190" x2="110" y2="190" stroke="#444444" stroke-width="1"/>
  
  <!-- Pen Body with Circuit Pattern -->
  <path d="M 88 193 L 85 240 L 85 280 L 100 295 L 115 280 L 115 240 L 112 193 Z" fill="#000000"/>
  
  <!-- Circuit Board Lines -->
  <line x1="90" y1="205" x2="110" y2="205" stroke="#00ff00" stroke-width="1.5"/>
  <line x1="95" y1="205" x2="95" y2="215" stroke="#00ff00" stroke-width="1.5"/>
  <line x1="105" y1="205" x2="105" y2="215" stroke="#00ff00" stroke-width="1.5"/>
  <circle cx="95" cy="215" r="2" fill="#00ff00"/>
  <circle cx="105" cy="215" r="2" fill="#00ff00"/>
  
  <line x1="88" y1="225" x2="112" y2="225" stroke="#00ffff" stroke-width="1.5"/>
  <line x1="100" y1="215" x2="100" y2="235" stroke="#00ffff" stroke-width="1.5"/>
  <circle cx="88" cy="225" r="2" fill="#00ffff"/>
  <circle cx="112" cy="225" r="2" fill="#00ffff"/>
  <circle cx="100" cy="235" r="2.5" fill="#00ffff"/>
  
  <line x1="92" y1="245" x2="108" y2="245" stroke="#ff00ff" stroke-width="1.5"/>
  <line x1="92" y1="245" x2="92" y2="255" stroke="#ff00ff" stroke-width="1.5"/>
  <line x1="108" y1="245" x2="108" y2="255" stroke="#ff00ff" stroke-width="1.5"/>
  <circle cx="92" cy="255" r="2" fill="#ff00ff"/>
  <circle cx="108" cy="255" r="2" fill="#ff00ff"/>
  
  <line x1="90" y1="265" x2="110" y2="265" stroke="#ffff00" stroke-width="1.5"/>
  <circle cx="90" cy="265" r="2.5" fill="#ffff00"/>
  <circle cx="110" cy="265" r="2.5" fill="#ffff00"/>
  <circle cx="100" cy="265" r="3" fill="#ffff00"/>
  
  <!-- Pen Tip - Very sharp -->
  <path d="M 100 295 L 97 292 L 100 282 L 103 292 Z" fill="#333333"/>
  <path d="M 100 295 L 100 282" stroke="#666666" stroke-width="1"/>
</svg>